<?xml version="1.0" encoding="UTF-8"?>
<svg width="1100px" height="1100px" viewBox="0 0 1100 1100" version="1.1" xmlns="http://www.w3.org/2000/svg" xmlns:xlink="http://www.w3.org/1999/xlink">
    <title>Slice</title>
    <defs>
        <circle id="path-1" cx="550" cy="550" r="550"></circle>
    </defs>
    <g id="Page-1" stroke="none" stroke-width="1" fill="none" fill-rule="evenodd">
        <g id="firefly">
            <mask id="mask-2" fill="white">
                <use xlink:href="#path-1"></use>
            </mask>
            <use id="Mask" fill="#FFFFFF" xlink:href="#path-1"></use>
            <g mask="url(#mask-2)" fill="#000000" fill-rule="nonzero" stroke="#000000">
                <g transform="translate(-203.000000, 164.000000)">
                    <polygon id="path2996" points="624.686896 0 724 78.8965588 724 230.620718 482.161233 484 454.869091 484 273.679564 397.517253 273.679564 370.206914 664.867021 220.000027 664.867021 185.103456 194.077468 291.310355 162.236629 291.310355 0 125.931048 15.1622677 88.0000195 682.303658 88.0000195"></polygon>
                    <path d="M649.788159,375 L478,584.309612 L648.267922,466.004181 L567.694734,705.648534 L663.090337,575.209224 L663.090337,993.070086 L722,1100 L722,472.829482 C682.350273,459.648539 657.016073,428.614553 649.788159,375 Z" id="path3766"></path>
                    <polygon id="path2996-7" points="881.313104 0 782 78.8965588 782 230.620718 1023.83877 484 1051.13091 484 1232.32044 397.517253 1232.32044 370.206914 841.132979 220.000027 841.132979 185.103456 1311.92253 291.310355 1343.76337 291.310355 1506 125.931048 1490.83773 88.0000195 823.696342 88.0000195"></polygon>
                    <path d="M858.211841,375 L1030,584.309612 L859.732078,466.004181 L940.305266,705.648534 L844.909663,575.209224 L844.909663,993.070086 L786,1100 L786,472.829482 C825.649727,459.648539 850.983927,428.614553 858.211841,375 L858.211841,375 Z" id="path3766-4"></path>
                </g>
            </g>
        </g>
    </g>
</svg>